<svg width="60" height="60" viewBox="0 0 60 60" fill="none" xmlns="http://www.w3.org/2000/svg">
<path d="M59 30C59 46.0163 46.0163 59 30 59C13.9837 59 1 46.0163 1 30C1 13.9837 13.9837 1 30 1C46.0163 1 59 13.9837 59 30Z" stroke="#007544" stroke-width="2"/>
<path d="M36.5656 32.3625C36.214 31.7448 35.738 31.2051 35.1672 30.7768C34.5965 30.3486 33.943 30.0408 33.2472 29.8725C32.5944 29.6786 31.9319 29.5184 31.2623 29.3925V22.59C32.5935 22.7314 33.8635 23.2177 34.9443 24C35.0189 24.0655 35.1058 24.1158 35.2001 24.148C35.2943 24.1803 35.3941 24.1938 35.4936 24.1879C35.5932 24.182 35.6906 24.1567 35.7803 24.1135C35.8699 24.0704 35.9502 24.0101 36.0163 23.9362C36.0825 23.8624 36.1333 23.7763 36.1659 23.683C36.1984 23.5897 36.2121 23.491 36.2061 23.3924C36.2002 23.2939 36.1746 23.1975 36.131 23.1087C36.0874 23.0199 36.0265 22.9405 35.9519 22.875C34.596 21.8412 32.9678 21.2163 31.2623 21.075V18.75C31.2623 18.5511 31.1825 18.3603 31.0404 18.2197C30.8983 18.079 30.7056 18 30.5047 18C30.3037 18 30.111 18.079 29.9689 18.2197C29.8269 18.3603 29.747 18.5511 29.747 18.75V21C26.4135 21.075 24.5725 22.7175 24.0119 24.135C23.6379 25.0478 23.6023 26.0622 23.9116 26.9984C24.2208 27.9346 24.8549 28.7323 25.7014 29.25C26.9335 29.9936 28.3137 30.4643 29.747 30.63V37.5C27.7691 37.4014 25.8744 36.6816 24.3376 35.445C24.2691 35.3642 24.184 35.2986 24.0881 35.2526C23.9922 35.2066 23.8875 35.1811 23.781 35.1778C23.6744 35.1746 23.5684 35.1936 23.4698 35.2337C23.3712 35.2738 23.2822 35.3341 23.2087 35.4105C23.1352 35.487 23.0789 35.5779 23.0434 35.6774C23.0078 35.7769 22.9939 35.8827 23.0025 35.9879C23.011 36.0931 23.042 36.1953 23.0932 36.2879C23.1444 36.3804 23.2148 36.4612 23.2997 36.525C25.1119 38.0353 27.3801 38.906 29.747 39V41.25C29.747 41.4489 29.8269 41.6397 29.9689 41.7803C30.111 41.921 30.3037 42 30.5047 42C30.7056 42 30.8983 41.921 31.0404 41.7803C31.1825 41.6397 31.2623 41.4489 31.2623 41.25V39C33.3988 38.8575 35.861 38.1825 36.7929 35.43C36.9615 34.9292 37.0282 34.4002 36.9892 33.8737C36.9502 33.3472 36.8062 32.8336 36.5656 32.3625V32.3625ZM26.5575 27.99C26.0043 27.664 25.5866 27.1533 25.3797 26.5498C25.1728 25.9463 25.1901 25.2895 25.4286 24.6975C25.512 24.4725 26.3605 22.59 29.747 22.5V29.1C28.6169 28.956 27.53 28.5778 26.5575 27.99V27.99ZM35.3534 34.92C34.8079 36.525 33.5957 37.2975 31.2623 37.47V30.9225C31.7471 31.0275 32.2472 31.1475 32.7775 31.305C33.2785 31.4176 33.7511 31.63 34.1666 31.9291C34.582 32.2282 34.9317 32.6079 35.1943 33.045C35.4914 33.6258 35.5485 34.2983 35.3534 34.92V34.92Z" fill="#007544"/>
</svg>
