<svg width="60" height="60" viewBox="0 0 60 60" fill="none" xmlns="http://www.w3.org/2000/svg">
<path d="M59 30C59 46.0163 46.0163 59 30 59C13.9837 59 1 46.0163 1 30C1 13.9837 13.9837 1 30 1C46.0163 1 59 13.9837 59 30Z" stroke="#007544" stroke-width="2"/>
<rect width="24" height="1.25185" transform="matrix(1 0 0 -1 18 43)" fill="#007544"/>
<path d="M39.6551 22.0388L36.9116 24.9451L32.4999 20.2716L35.2434 17.3654C35.3525 17.2496 35.4822 17.1577 35.6249 17.095C35.7676 17.0323 35.9206 17 36.0751 17C36.2296 17 36.3826 17.0323 36.5253 17.095C36.668 17.1577 36.7977 17.2496 36.9069 17.3654L39.6551 20.2766C39.7644 20.3923 39.8512 20.5296 39.9103 20.6808C39.9695 20.832 40 20.9941 40 21.1577C40 21.3214 39.9695 21.4835 39.9103 21.6347C39.8512 21.7858 39.7644 21.9232 39.6551 22.0388V22.0388ZM20 33.5118L31.841 20.9695L36.2527 25.643L24.4117 38.1852H20.0012V33.5118H20ZM36.0257 18.3026L34.214 20.2206L36.9633 23.1305L38.7727 21.2126L36.0257 18.3026ZM34.5387 25.699L31.7916 22.7878L21.1776 34.0302V36.9414H23.9258L34.5387 25.699V25.699Z" fill="#007544"/>
</svg>
