<svg width="60" height="60" viewBox="0 0 60 60" fill="none" xmlns="http://www.w3.org/2000/svg">
<path d="M59 30C59 46.0163 46.0163 59 30 59C13.9837 59 1 46.0163 1 30C1 13.9837 13.9837 1 30 1C46.0163 1 59 13.9837 59 30Z" stroke="#007544" stroke-width="2"/>
<path d="M41.2147 25.9939H40.7967C40.193 24.3188 39.1662 22.8025 37.7884 21.5763C37.7884 21.5708 37.7884 21.5708 37.7884 21.5654C37.582 20.8045 37.7368 19.9888 38.2374 19.1404C38.4954 18.7024 38.5108 18.1714 38.2735 17.7226C38.0413 17.2792 37.6027 17 37.128 17C37.0712 17 37.0144 17.0055 36.9628 17.0109C35.0485 17.2628 33.903 18.1879 33.2425 19.0473C32.097 18.7134 30.9102 18.5437 29.7028 18.5437C26.5913 18.5437 23.6656 19.6713 21.4572 21.7186C19.2281 23.7878 18 26.5467 18 29.4863C18 30.2472 18.0826 31.0081 18.2528 31.7526C18.2528 31.7635 18.258 31.7799 18.2632 31.7909C18.2632 31.7909 18.2683 31.8018 18.2735 31.8237C18.4489 32.5737 18.7069 33.3072 19.0423 34.0024C19.5944 35.2779 20.2601 36.3398 21.0083 37.1609C22.0712 38.3214 22.2518 39.7885 22.2776 40.3797V40.6698C22.2776 40.6862 22.2776 40.7026 22.2776 40.7245C22.2776 40.7519 22.2776 40.7793 22.2828 40.8012C22.3447 41.4745 22.8865 41.9945 23.5263 41.9945H27.3705C28.0568 41.9945 28.6192 41.3979 28.6192 40.6698V40.3961C29.2178 40.4454 29.8215 40.4563 30.4252 40.4235V40.6753C30.4252 41.4033 30.9876 42 31.6739 42H35.5181C36.2043 42 36.7668 41.4033 36.7668 40.6753V39.679C36.7719 39.4436 36.8596 38.3269 37.8555 37.3635C37.902 37.3197 37.9536 37.2759 38 37.2321C38.0052 37.2266 38.0052 37.2266 38.0103 37.2212C38.0206 37.2102 38.0361 37.1993 38.0464 37.1883C39.3364 35.9621 40.3013 34.4677 40.8586 32.8364H41.2198C42.2002 32.8364 43 31.988 43 30.9479V27.9043C42.9948 26.8423 42.195 25.9939 41.2147 25.9939ZM41.7565 30.926C41.7565 31.2435 41.5139 31.5008 41.2147 31.5008H40.4097C40.1362 31.5008 39.8989 31.6869 39.8163 31.9661C39.3571 33.5535 38.4489 35.0206 37.195 36.2085C37.1899 36.2139 37.1899 36.2139 37.1847 36.2194L37.1796 36.2249C37.1331 36.2687 37.0867 36.3125 37.0402 36.3563C37.0351 36.3617 37.0299 36.3672 37.0248 36.3672C35.6729 37.67 35.5335 39.2028 35.5232 39.6407C35.5232 39.6462 35.5232 39.6516 35.5232 39.6571V40.6643C35.5232 40.6698 35.5181 40.6753 35.5129 40.6753H31.6687C31.6636 40.6753 31.6584 40.6698 31.6584 40.6643V39.7064C31.6584 39.5203 31.5862 39.3451 31.452 39.2192C31.3385 39.1097 31.1889 39.0495 31.0392 39.0495C31.0186 39.0495 30.9979 39.0495 30.9721 39.055C30.549 39.1042 30.1207 39.1261 29.6976 39.1261C29.1558 39.1261 28.6089 39.0878 28.0774 39.0112C27.902 38.9838 27.7214 39.044 27.5872 39.1699C27.453 39.2958 27.3756 39.4765 27.3756 39.6626V40.6643C27.3756 40.6698 27.3705 40.6753 27.3653 40.6753H23.5212C23.516 40.6753 23.5108 40.6698 23.5108 40.6643V40.3578C23.5108 40.3468 23.5108 40.3359 23.5108 40.3304C23.4799 39.5969 23.2632 37.7357 21.8906 36.2413C21.2353 35.5242 20.6471 34.5827 20.1465 33.4386C20.1414 33.4276 20.1414 33.4222 20.1362 33.4167C19.8421 32.8036 19.6099 32.1631 19.4603 31.5062C19.4603 31.5008 19.4551 31.4953 19.4551 31.4898C19.4551 31.4843 19.4551 31.4843 19.4551 31.4789C19.3055 30.8275 19.2332 30.1596 19.2332 29.4973C19.2332 24.1874 23.9288 19.8629 29.6976 19.8629C30.9309 19.8629 32.1331 20.06 33.2786 20.4432C33.5418 20.5308 33.8256 20.4268 33.9804 20.1859C34.4396 19.4633 35.3529 18.5601 37.1073 18.3247C37.1486 18.3192 37.1744 18.3466 37.1847 18.3685C37.2054 18.4068 37.1899 18.4397 37.1796 18.4506C36.4933 19.6111 36.2921 20.8154 36.5913 21.9321C36.5913 21.9376 36.5965 21.9485 36.5965 21.954C36.6017 22.1456 36.6842 22.3263 36.8287 22.4467C38.2322 23.651 39.2487 25.1782 39.7699 26.8642C39.8524 27.1325 40.0898 27.3186 40.3581 27.3186H40.3633H41.2095C41.5088 27.3186 41.7513 27.5759 41.7513 27.8934V30.926H41.7565Z" fill="#007544"/>
<path d="M30.3738 28.8292H28.9909C28.4956 28.8292 28.0931 28.4022 28.0931 27.8767C28.0931 27.3512 28.4956 26.9242 28.9909 26.9242H31.4367C31.7773 26.9242 32.0559 26.6286 32.0559 26.2674C32.0559 25.9061 31.7773 25.6105 31.4367 25.6105H30.3067V24.7292C30.3067 24.3679 30.0281 24.0723 29.6875 24.0723C29.347 24.0723 29.0683 24.3679 29.0683 24.7292V25.6105H28.9961C27.8196 25.6105 26.8599 26.6286 26.8599 27.8767C26.8599 29.1248 27.8196 30.143 28.9961 30.143H30.3789C30.8743 30.143 31.2768 30.57 31.2768 31.0955C31.2768 31.621 30.8743 32.048 30.3789 32.048H27.8919C27.5513 32.048 27.2727 32.3436 27.2727 32.7048C27.2727 33.0661 27.5513 33.3617 27.8919 33.3617H29.0683V34.2595C29.0683 34.6208 29.347 34.9164 29.6875 34.9164C30.0281 34.9164 30.3067 34.6208 30.3067 34.2595V33.3617H30.3944C30.3996 33.3617 30.4047 33.3617 30.4099 33.3617C31.5761 33.3453 32.5203 32.3326 32.5203 31.0955C32.51 29.8474 31.5503 28.8292 30.3738 28.8292Z" fill="#007544"/>
</svg>
